<svg width="337" height="238" viewBox="0 0 337 238" fill="none" xmlns="http://www.w3.org/2000/svg">
<path d="M191.034 125.757L189.509 210.217H145.706C143.456 206.283 144.829 200.094 144.593 195.348C144.505 193.545 143.828 191.882 143.768 190.087C143.064 168.697 144.357 147.155 143.8 125.761H191.03L191.034 125.757Z" fill="#DC1717"/>
<path d="M237.12 124.993C241.823 123.694 242.372 104.931 240.91 101.424C238.913 96.6265 229.054 96.9943 224.919 96.8424C223.994 96.8064 222.085 97.4102 222.265 96.0868C230.571 95.8189 241.139 97.2422 247.799 91.5289L257.675 80.8659C269.447 101.208 270.812 129.079 264.359 151.445C259.036 169.892 245.318 189.983 230.235 201.821C229.03 202.765 225.699 205.767 225.303 203C224.819 199.602 225.535 195.2 225.295 191.582C224.543 180.147 223.678 168.781 223.009 157.342C222.449 147.798 220.752 137.04 220.696 127.62C220.692 126.768 221.096 124.993 221.877 124.993H237.112H237.12ZM235.599 131.842C232.48 132.949 231.816 136.432 234.074 138.691H250.834C252.687 138.691 253.039 132.845 250.834 131.842H235.599ZM238.457 151.441C239.365 152.224 244.137 152.704 245.394 152.28C249.721 145.791 242.335 145.731 237.504 147.063C237.476 148.254 237.568 150.673 238.457 151.441Z" fill="#DC1717"/>
<path d="M235.214 54.9861C224.074 57.1891 212.702 59.6879 201.31 60.3116C174.386 61.7829 133.777 62.1228 107.842 56.2895C106.697 56.0336 101.129 54.9022 101.157 53.8507C135.85 20.5503 188.188 16.6082 226.776 46.3062C227.925 47.1898 236.347 53.7467 235.218 54.9861H235.214Z" fill="#DC1717"/>
<path d="M109.515 96.0828C112.169 98.1098 103.731 97.5181 103.055 97.6141C97.7988 98.3577 94.1121 98.6775 93.4717 104.783C92.9913 109.349 93.0394 119.312 96.1536 122.746C99.0117 125.905 108.875 126.117 112.982 125.189L114.127 126.916L107.614 204.14C101.421 201.469 96.1936 194.552 92.0186 189.267C72.1442 164.087 64.7869 135.432 70.8913 103.531C71.5158 100.273 75.8469 82.917 78.753 82.4212C82.7999 83.7326 84.4892 89.234 87.031 91.5249C92.0066 95.9988 103.147 95.9109 109.511 96.0828H109.515ZM82.856 137.931H99.2358C102.254 137.931 101.934 132.594 98.131 131.426C96.0575 130.79 86.1664 131.366 84.3731 132.214C82.4157 133.141 82.824 136.072 82.856 137.927V137.931Z" fill="#DC1717"/>
<path d="M168.406 125.101V129.543C178.169 129.671 187.079 139.107 187.392 149.538C189.281 149.462 191.371 150.113 193.26 149.83C193.856 149.742 194.325 149.17 194.753 149.286C195.958 149.61 196.278 151.565 195.686 152.696C194.745 154.479 194.121 152.5 193.24 152.32C191.619 151.992 189.145 152.52 187.42 152.344C186.879 163.127 178.361 171.879 168.438 172.903L168.158 176.909L166.06 177.033L165.78 172.891C156.281 172.131 146.786 163.235 147.046 152.624L142.023 152.072L141.871 149.822H146.162C146.23 149.822 146.774 149.538 146.818 149.35C147.03 139.534 155.048 131.098 163.879 129.583C164.555 129.467 165.356 129.799 165.8 129.131V125.105H168.402L168.406 125.101ZM154.1 149.538C154.412 143.021 159.82 137.899 165.692 137.06L165.544 132.598C157.158 133.469 150.721 140.802 149.42 149.538H154.104H154.1ZM168.406 132.877V137.319C172.693 137.527 176.44 140.258 178.425 144.256C179.302 146.019 179.59 147.722 180.243 149.538H184.273C183.865 140.91 176.548 133.069 168.406 132.877ZM156.958 149.538H160.728C161.765 146.747 163.046 145.348 165.672 144.264C165.884 143.888 165.88 141.341 165.8 140.782C165.74 140.342 165.956 140.366 165.408 140.362C161.537 140.35 157.074 145.412 156.954 149.538H156.958ZM176.728 149.538C176.62 144.976 172.769 140.766 168.538 140.37L168.522 144.272C170.724 145.04 172.701 146.955 172.825 149.538H176.728ZM165.988 147.655C163.358 148.302 163.17 152.632 165.976 153.936C170.487 156.031 171.9 146.199 165.988 147.655ZM168.406 161.756C172.993 161.404 176.079 157.29 176.98 152.728L176.452 152.424L172.865 152.636C172.269 154.723 170.527 157.05 168.406 157.314V161.756ZM154.1 152.592H149.676C150.457 161.404 157.326 169.312 165.804 169.532V165.226C164.911 164.623 163.662 164.667 162.542 164.267C158.279 162.731 154.192 157.542 154.1 152.592ZM165.804 157.314C163.382 157.182 161.877 154.743 160.993 152.592H156.962C157.418 157.362 161.333 161.484 165.804 161.756V157.314ZM184.273 152.592H179.85C179.45 158.881 174.718 164.175 168.842 164.862L168.406 165.23V169.536C176.48 168.937 183.661 161.252 184.273 152.596V152.592Z" fill="white"/>
<path d="M138.552 152.8C138.224 151.793 137.736 149.797 139.129 149.67C142.131 149.394 140.81 154.091 138.552 152.8Z" fill="white"/>
<path d="M198.484 149.598C200.293 149.226 201.122 152.752 198.944 152.872C197.339 152.96 197.055 149.889 198.484 149.598Z" fill="white"/>
<path d="M136.671 150.093C136.671 150.845 136.811 151.493 136.427 152.192C135.002 154.783 132.424 149.39 136.671 150.093Z" fill="white"/>
<path d="M120.948 92.2766C113.926 90.8652 101.469 92.8403 95.6092 88.4944C94.2562 87.4908 93.0754 84.5242 91.6143 83.1489C89.793 81.4337 86.7188 80.2862 84.7774 78.563C81.5991 75.7404 69.4823 56.6134 72.1963 53.4708C85.5019 56.7093 98.115 62.2867 111.665 64.6416C119.278 65.965 128.049 66.8685 135.77 67.1964C167.589 68.5398 213.238 69.6272 243.232 60.3316C247.988 58.8563 258.299 53.7427 262.25 53.4469C262.818 53.4029 263.579 53.2949 263.399 53.8427C260.645 59.548 258.603 65.4252 255.341 70.9026C252.379 75.8803 248.964 82.3133 242.203 81.7455L239.009 89.5938C231.319 92.4405 222.713 91.413 214.647 92.2766V103.691H233.693V117.005L232.552 118.144H213.887L215.42 158.845C216.513 171.959 218.826 185.229 219.251 198.387C219.343 201.189 219.719 208.266 219.127 210.501C218.63 212.384 217.477 210.973 217.313 210.973H199.032L197.891 209.833V118.144H136.947V210.593L135.826 211.512L115.612 211.736L120.948 118.144H101.141V104.447H119.807L120.948 103.307V92.2726V92.2766ZM158.275 91.5169C151.217 92.5884 144.076 92.2606 136.943 92.2766V103.691H158.275V91.5169ZM197.127 92.2766H176.56C176.276 96.0548 177.312 100.121 175.799 103.691H197.891L197.131 92.2766H197.127Z" fill="#3B3B3B"/>
</svg>
